<svg height="512pt" preserveAspectRatio="xMidYMid meet" viewBox="0 0 512 512" width="512pt" xmlns="http://www.w3.org/2000/svg"><g transform="matrix(.1 0 0 -.1 0 512)"><path d="m1653 4000c-87-53-82-180 10-223 30-15 77-17 356-17h321l-2-177-3-178-342-115c-374-126-390-134-400-207-10-79 45-143 123-143 23 0 176 48 387 122l348 121 47-45c85-82 189-141 296-167 69-17 213-15 287 4 165 43 315 165 387 316 57 118 64 167 60 431l-3 228-33 32-32 33-888 3c-866 2-888 2-919-18zm1617-375c0-165-17-222-92-301-102-108-250-138-382-76-76 36-133 90-167 158-22 44-24 64-27 202l-4 152h336 336z"/><path d="m2022 2769c-135-67-133-268 2-330 136-62 280 41 263 187-14 127-150 200-265 143z"/><path d="m2895 2771c-62-28-115-104-115-166 0-32 25-90 53-122 113-129 320-50 320 122 0 135-135 222-258 166z"/><path d="m1649 2203c-76-47-79-153-6-207 27-20 43-21 390-26l362-5 65-31c89-42 134-84 170-159 37-78 42-173 11-234-30-57-131-146-198-172-56-23-71-24-421-29l-364-5-34-37c-55-61-44-138 25-185 34-23 36-23 385-23 394 0 427 4 556 68 108 53 233 178 286 286 36 74 39 84 38 170 0 120-19 210-59 290l-33 66h301c282 0 304 1 334 20 74 45 83 139 19 197l-36 33h-882c-799-1-886-2-909-17z"/></g></svg>