<svg xmlns="http://www.w3.org/2000/svg" width="150" height="150" viewBox="0 0 150 150">
    <g fill="none" fill-rule="evenodd">
        <circle cx="75" cy="75" r="75" fill="#121217"/>
        <path fill="#08F6F6" d="M53.249 89.34c-.908 0-1.676-.301-2.305-.902A2.93 2.93 0 0 1 50 86.235c0-.848.315-1.572.944-2.173s1.397-.902 2.305-.902h43.007c.908 0 1.676.3 2.305.902.63.601.944 1.325.944 2.173 0 .848-.315 1.572-.944 2.173s-1.397.912-2.305.931H81.405c2.124 2.622 2.722 6.331 2.563 9.662-.156 3.28-2.64 5.967-4.095 7.387-1.454 1.419-3.166 2.542-5.136 3.37-1.97.828-4.069 1.242-6.296 1.242H53.249c-.908-.02-1.676-.33-2.305-.931-.63-.602-.944-1.326-.944-2.174 0-.847.315-1.571.944-2.173.629-.6 1.397-.901 2.305-.901H68.44c1.32 0 2.568-.247 3.743-.74a10.007 10.007 0 0 0 3.079-1.995c.877-.838 2.052-1.978 2.21-3.492.159-1.514.189-2.479-.317-3.593-.505-1.113-.99-2.094-1.878-2.941a9.846 9.846 0 0 0-3.094-1.996 9.757 9.757 0 0 0-3.743-.725H53.249zm9.87-10.98c-2.598 0-4.703-2.042-4.703-4.56s2.105-4.56 4.703-4.56c2.597 0 4.703 2.042 4.703 4.56s-2.106 4.56-4.703 4.56zm22.277 0c-2.597 0-4.703-2.042-4.703-4.56s2.106-4.56 4.703-4.56c2.597 0 4.703 2.042 4.703 4.56s-2.106 4.56-4.703 4.56zM53.312 39h43.376c.458 0 .89.079 1.296.236.407.157.76.377 1.063.662.302.284.536.613.703.986.167.373.25.785.25 1.236v8.36c0 1.983-.406 3.852-1.219 5.609a14.636 14.636 0 0 1-3.312 4.592c-1.396 1.305-3.026 2.34-4.89 3.106-1.865.765-3.85 1.148-5.954 1.148-1.375 0-2.714-.162-4.016-.486a15.188 15.188 0 0 1-3.687-1.442c-1.156-.638-2.412-1.433-3.462-2.385l-1.241-1.267-17.094 5.646c-.792.266-1.396.399-1.813.399A3.53 3.53 0 0 1 52 65.164a3.269 3.269 0 0 1-1.047-.662A3.026 3.026 0 0 1 50 62.28c0-1.099.542-1.992 1.625-2.678l17.656-5.587V45.24H53.312c-.916 0-1.697-.304-2.343-.913-.646-.608-.969-1.344-.969-2.208 0-.863.323-1.599.969-2.207.646-.609 1.427-.913 2.343-.913zm40.005 6.48H75.99v5.235c0 1.137.227 2.205.682 3.205.455 1 1.08 1.868 1.875 2.603a9.206 9.206 0 0 0 2.759 1.75 8.636 8.636 0 0 0 3.332.647 8.832 8.832 0 0 0 3.379-.647 8.815 8.815 0 0 0 2.758-1.765 8.316 8.316 0 0 0 1.86-2.617c.455-1 .682-2.059.682-3.176V45.48z"/>
    </g>
</svg>
