<svg enable-background="new 0 0 52.026 52.026" fill="#08f6f6" viewBox="0 0 52.026 52.026" xmlns="http://www.w3.org/2000/svg"><path d="m28.404 3.413c-.976-.552-2.131-.534-3.09.044-.046.027-.09.059-.13.093l-13.55 11.463h-10.634c-.553 0-1 .447-1 1v19c0 .266.105.52.293.707s.441.293.707.293l10.61-.005 13.543 12.44c.05.046.104.086.161.12.492.297 1.037.446 1.582.446.517-.001 1.033-.134 1.508-.402.999-.564 1.596-1.594 1.596-2.755v-39.688c0-1.161-.597-2.191-1.596-2.756zm-.404 42.444c0 .431-.217.81-.579 1.015-.155.087-.548.255-1 .026l-13.421-12.329v-4.556c0-.553-.447-1-1-1s-1 .447-1 1v3.996l-9 .004v-17h9v4c0 .553.447 1 1 1s1-.447 1-1v-4.536l13.405-11.34c.461-.242.86-.07 1.016.018.362.205.579.584.579 1.014z"/><path d="m38.797 7.066c-.523-.177-1.091.103-1.269.626-.177.522.103 1.091.626 1.269 7.101 2.411 11.872 9.063 11.872 16.553 0 7.483-4.762 14.136-11.849 16.554-.522.178-.802.746-.623 1.27.142.415.53.677.946.677.107 0 .216-.017.323-.054 7.896-2.693 13.202-10.106 13.202-18.446.001-8.349-5.315-15.762-13.228-18.449z"/><path d="m43.026 25.513c0-5.972-4.009-11.302-9.749-12.962-.533-.151-1.084.152-1.238.684-.153.53.152 1.085.684 1.238 4.889 1.413 8.304 5.953 8.304 11.04s-3.415 9.627-8.304 11.04c-.531.153-.837.708-.684 1.238.127.438.526.723.961.723.092 0 .185-.013.277-.039 5.741-1.66 9.749-6.99 9.749-12.962z"/></svg>