<svg enable-background="new 0 0 54 54" fill="#08f6f6" viewBox="0 0 54 54" xmlns="http://www.w3.org/2000/svg"><path d="m46.414 26 7.293-7.293c.391-.391.391-1.023 0-1.414s-1.023-.391-1.414 0l-7.293 7.293-7.293-7.293c-.391-.391-1.023-.391-1.414 0s-.391 1.023 0 1.414l7.293 7.293-7.293 7.293c-.391.391-.391 1.023 0 1.414.195.195.451.293.707.293s.512-.098.707-.293l7.293-7.293 7.293 7.293c.195.195.451.293.707.293s.512-.098.707-.293c.391-.391.391-1.023 0-1.414z"/><path d="m28.404 4.4c-.975-.552-2.131-.534-3.09.044-.046.027-.09.059-.13.093l-13.55 11.463h-10.634c-.553 0-1 .447-1 1v19c0 .266.105.52.293.707s.441.293.707.293l10.61-.005 13.543 12.44c.05.046.104.086.161.12.492.297 1.037.446 1.582.446.517-.001 1.033-.134 1.508-.402.999-.564 1.596-1.594 1.596-2.755v-39.688c0-1.161-.597-2.191-1.596-2.756zm-.404 42.444c0 .431-.217.81-.579 1.015-.155.087-.548.255-1 .026l-13.421-12.329v-4.556c0-.553-.447-1-1-1s-1 .447-1 1v3.996l-9 .004v-17h9v4c0 .553.447 1 1 1s1-.447 1-1v-4.536l13.405-11.34c.46-.242.86-.07 1.016.018.362.205.579.583.579 1.014z"/></svg>